<?xml version="1.0" standalone="no"?>
<!DOCTYPE svg PUBLIC "-//W3C//DTD SVG 20010904//EN"
 "http://www.w3.org/TR/2001/REC-SVG-20010904/DTD/svg10.dtd">
<svg version="1.0" xmlns="http://www.w3.org/2000/svg"
 width="64.000000pt" height="64.000000pt" viewBox="0 0 64.000000 64.000000"
 preserveAspectRatio="xMidYMid meet">

<g transform="translate(0.000000,64.000000) scale(0.100000,-0.100000)"
fill="#000000" stroke="none">
<path d="M240 530 c0 -5 -8 -10 -18 -10 -10 0 -24 -9 -32 -20 -8 -11 -22 -20
-32 -20 -11 0 -18 -7 -18 -18 0 -10 -9 -24 -20 -32 -11 -8 -20 -22 -20 -32 0
-10 -4 -18 -10 -18 -6 0 -10 -30 -10 -70 0 -40 4 -70 10 -70 6 0 10 -8 10 -18
0 -10 9 -24 20 -32 11 -8 20 -22 20 -32 0 -11 7 -18 18 -18 10 0 24 -9 32 -20
8 -11 22 -20 32 -20 10 0 18 -4 18 -10 0 -6 35 -10 86 -10 83 0 87 1 114 30
15 17 35 30 44 30 9 0 16 8 16 18 0 10 9 24 20 32 11 8 20 22 20 32 0 10 5 18
10 18 6 0 10 30 10 70 0 40 -4 70 -10 70 -5 0 -10 8 -10 18 0 10 -9 24 -20 32
-11 8 -20 22 -20 32 0 11 -7 18 -18 18 -10 0 -24 9 -32 20 -8 11 -22 20 -32
20 -10 0 -18 5 -18 10 0 6 -33 10 -80 10 -47 0 -80 -4 -80 -10z m-80 -176 c0
-4 -10 -15 -22 -25 l-21 -19 23 -20 c13 -11 21 -23 17 -26 -3 -3 -17 6 -32 20
l-26 26 23 24 c23 24 38 32 38 20z m40 -34 c0 -22 5 -40 10 -40 6 0 10 18 10
40 0 22 5 40 10 40 6 0 10 -22 10 -50 0 -49 -1 -50 -30 -50 -29 0 -30 1 -30
50 0 28 5 50 10 50 6 0 10 -18 10 -40z m100 31 c0 -5 -6 -12 -12 -15 -10 -5
-10 -7 0 -12 6 -3 12 -19 12 -35 0 -22 -5 -29 -20 -29 -22 0 -27 15 -7 24 10
5 10 7 0 12 -7 3 -13 19 -13 35 0 22 5 29 20 29 11 0 20 -4 20 -9z m80 -41 c0
-49 -1 -50 -30 -50 -29 0 -30 1 -30 50 0 49 1 50 30 50 29 0 30 -1 30 -50z
m80 40 c0 -5 -9 -10 -20 -10 -11 0 -20 -4 -20 -10 0 -5 9 -10 20 -10 11 0 20
-4 20 -10 0 -5 -9 -10 -20 -10 -13 0 -20 -7 -20 -20 0 -11 -4 -20 -10 -20 -5
0 -10 23 -10 50 0 49 1 50 30 50 17 0 30 -4 30 -10z m56 -15 l25 -25 -26 -26
c-14 -14 -29 -23 -32 -20 -4 3 4 15 17 26 l23 20 -21 19 c-21 18 -28 31 -17
31 3 0 17 -11 31 -25z"/>
<path d="M340 310 c0 -16 5 -30 10 -30 6 0 10 14 10 30 0 17 -4 30 -10 30 -5
0 -10 -13 -10 -30z"/>
</g>
</svg>